<?xml version="1.0" encoding="UTF-8"?>
<svg id="Layer_2" data-name="Layer 2" xmlns="http://www.w3.org/2000/svg" xmlns:xlink="http://www.w3.org/1999/xlink" viewBox="0 0 800 162.24">
  <defs>
    <style>
      .cls-1 {
        fill: url(#linear-gradient);
      }

      .cls-2 {
        fill: #fff;
      }
    </style>
    <linearGradient id="linear-gradient" x1="10.05" y1="147.64" x2="121.8" y2="35.89" gradientUnits="userSpaceOnUse">
      <stop offset="0" stop-color="#f6921e"/>
      <stop offset=".21" stop-color="#f58d1e"/>
      <stop offset=".44" stop-color="#f2801f"/>
      <stop offset=".67" stop-color="#ee6b21"/>
      <stop offset=".91" stop-color="#e94d24"/>
      <stop offset="1" stop-color="#e74126"/>
    </linearGradient>
  </defs>
  <g id="Layer_1-2" data-name="Layer 1">
    <g>
      <g>
        <path class="cls-2" d="M172.62,61.63c9.2-1.9,17.27-2.85,24.19-2.85h4.98c6.45,0,11.62,1.95,15.51,5.83,3.89,3.89,5.83,9.06,5.83,15.51v32.73c0,7.12-2.02,12.69-6.05,16.72s-9.61,6.05-16.72,6.05h-52.65V36.01h24.9v25.62ZM198.24,82.98c0-1.42-.48-2.61-1.42-3.56-.95-.95-2.13-1.42-3.56-1.42h-3.56c-3.98,0-7.42.19-10.32.57-2.89.38-5.15.66-6.76.85v37h19.92c3.79,0,5.69-1.9,5.69-5.69v-27.75Z"/>
        <path class="cls-2" d="M267.26,63.05v72.58h-24.9v-53.37h-10.67v-19.21h35.58ZM242.35,34.59h24.9v19.92h-24.9v-19.92Z"/>
        <path class="cls-2" d="M334.14,135.63c-9.2.95-18.22,1.42-27.04,1.42-6.45,0-11.62-1.94-15.51-5.83-3.89-3.89-5.83-9.06-5.83-15.51v-36.29h-8.54v-19.21h8.54l2.85-17.08h22.06v17.08h17.79v19.21h-17.79v32.73c0,1.42.47,2.61,1.42,3.56.95.95,2.13,1.42,3.56,1.42h18.5v18.5Z"/>
        <path class="cls-2" d="M409.56,134.21c-17.74,1.9-33.4,2.85-46.96,2.85-6.45,0-11.62-1.94-15.51-5.83-3.89-3.89-5.83-9.06-5.83-15.51v-32.73c0-7.12,2.01-12.69,6.05-16.72s9.61-6.05,16.72-6.05h45.54v19.21h-37.71c-3.8,0-5.69,1.9-5.69,5.69v27.75c0,1.42.47,2.61,1.42,3.56.95.95,2.13,1.42,3.56,1.42,8.54,0,21.35-.71,38.42-2.13v18.5Z"/>
        <path class="cls-2" d="M497.79,114.29c0,7.12-2.02,12.69-6.05,16.72-4.03,4.03-9.61,6.05-16.72,6.05h-32.73c-7.12,0-12.69-2.01-16.72-6.05-4.03-4.03-6.05-9.61-6.05-16.72v-32.73c0-7.12,2.01-12.69,6.05-16.72s9.61-6.05,16.72-6.05h32.73c7.12,0,12.69,2.02,16.72,6.05,4.03,4.03,6.05,9.61,6.05,16.72v32.73ZM472.89,83.69c0-3.79-1.9-5.69-5.69-5.69h-17.08c-3.8,0-5.69,1.9-5.69,5.69v28.46c0,3.8,1.9,5.69,5.69,5.69h17.08c3.79,0,5.69-1.9,5.69-5.69v-28.46Z"/>
        <path class="cls-2" d="M541.91,63.05v72.58h-24.9v-53.37h-10.67v-19.21h35.58ZM517.01,34.59h24.9v19.92h-24.9v-19.92Z"/>
        <path class="cls-2" d="M598.12,79.42c-5.03,0-10.72.95-17.08,2.85v53.37h-24.9V60.21h22.06l1.42,7.12c4.46-2.94,9.04-5.1,13.73-6.47,4.7-1.37,8.66-2.06,11.88-2.06h6.4c6.45,0,11.62,1.95,15.51,5.83,3.89,3.89,5.83,9.06,5.83,15.51v55.5h-24.9v-51.23c0-1.42-.48-2.61-1.42-3.56-.95-.95-2.13-1.42-3.56-1.42h-4.98Z"/>
        <path class="cls-2" d="M650.5,57.05v-12.99c0-2.19.89-4.07,2.66-5.64,1.77-1.57,3.65-2.35,5.64-2.35h45.71c5.84,0,8.82,2.3,8.92,6.89l.16,7.51c.1,4.28-2.66,6.42-8.3,6.42h-23.01c-3.03,0-4.54-1.72-4.54-5.17v-2.82h-5.95c-1.88,0-2.82.84-2.82,2.5v5.64h-18.47ZM714.22,135.63v-16.75h-42.58c-1.78,0-2.66-1.3-2.66-3.91v-15.5c0-2.29,1.3-3.44,3.91-3.44h40.7v-31.46c0-1.77-.7-3.34-2.11-4.7-1.41-1.36-3.16-2.03-5.24-2.03h-55.73v16.12h40.7c1.46,0,2.35.47,2.66,1.41.21.52.31,1.83.31,3.91h-36.79c-4.59,0-6.89,3.03-6.89,9.08v42.27c0,3.34,1.77,5.01,5.32,5.01h12.52c-2.82,1.46-4.23,3.44-4.23,5.95v14.4c0,1.77.89,3.26,2.66,4.46,1.77,1.2,3.6,1.8,5.48,1.8h45.55v-16.75h-30.21c-1.36,0-2.25-.16-2.66-.47-.42-.31-.63-1.15-.63-2.51,0-3.65,1.25-5.95,3.76-6.89h26.14ZM689.8,47.5v2.82c0,.63.52.94,1.57.94h8.3c.94,0,1.41-.36,1.41-1.1v-2.66c0-.73-.47-1.1-1.41-1.1h-8.45c-.94,0-1.41.37-1.41,1.1Z"/>
        <path class="cls-2" d="M756.48,57.83c.83,0,2.76,1.31,5.79,3.91,1.46-2.61,3.39-3.91,5.79-3.91h31.93v16.12h-27.24c-1.46,0-2.38.39-2.74,1.17-.37.78-.55,2.17-.55,4.15h25.52c3.34,0,5.01,1.83,5.01,5.48v45.24c0,3.76-1.67,5.64-5.01,5.64h-67.31c-3.44,0-5.17-1.67-5.17-5.01v-45.87c0-1.57.6-2.87,1.8-3.91,1.2-1.04,2.53-1.57,3.99-1.57h23.95c0-3.55-1.04-5.32-3.13-5.32h-26.77v-16.12h34.13ZM740.67,114.97c0,2.61.94,3.91,2.82,3.91h35.07c2.09,0,3.13-1.25,3.13-3.76v-16.44c0-1.77-1.04-2.66-3.13-2.66h-34.28c-2.4,0-3.6.89-3.6,2.66v16.28Z"/>
      </g>
      <path class="cls-1" d="M56.49,107.56c0,3.87-2.08,7-4.65,7s-4.65-3.13-4.65-7,2.08-7,4.65-7,4.65,3.13,4.65,7ZM75.37,107.71c0,3.87,2.08,7,4.65,7s4.65-3.13,4.65-7-2.08-7-4.65-7-4.65,3.13-4.65,7ZM0,48.84c1.63,13.42.97,26.97,1.57,40.44.61,11.31,2.02,25.49,15.01,28.81,1.62.43,3.29.69,4.98.83-1.69-.05-3.37-.24-5.03-.63-13.31-2.89-15.16-17.56-15.73-28.97-.57-13.5.24-26.99-.79-40.47h0ZM1.15,48.67c15.07,13.79-8.73,54.16,10.95,66.83,2.83,1.85,6.15,2.82,9.46,3.42-3.37-.44-6.73-1.33-9.66-3.1-20.58-12.8,3.46-53.39-10.75-67.15h0ZM18.78,110.19c-3.08-.5-5.17-2.37-6.33-5.22-1.08-2.67-1.35-5.58-1.51-8.42-.14-2.85-.04-5.7.04-8.54.34-13.31,2.36-30.48-9.83-39.34,12.8,8.36,11.06,26.01,10.56,39.37-.13,2.83-.23,5.67-.18,8.49.08,2.8.28,5.66,1.27,8.3.99,2.8,3.04,4.73,5.98,5.36h0ZM23.54,63.98c-3.48-6.14-7.59-9.74-14.08-12.45-2.71-1.12-5.49-2-8.31-2.87,4.66.79,9.3,2.1,13.38,4.56,4.1,2.45,7.25,6.35,9.01,10.75h0ZM25.12,97.5c-12.67-16.13,6.99-32.19-4.36-55.72-1.13-2.49-2.55-4.85-4.05-7.15,2.47,3.31,4.6,6.9,6.07,10.77,8.46,21.55-8.86,36.31,2.33,52.1h0ZM1.15,48.67c7.37-2.15,16.65-.4,22.75,4.24-1.74-.95-3.54-1.74-5.38-2.39-5.55-1.92-11.53-2.64-17.37-1.85h0ZM28.96,95.25c-7.48-17.57,7.39-44.16-8.95-58.25-1.03-.87-2.14-1.66-3.29-2.37,2.4,1.27,4.6,2.95,6.4,5.02,12.41,14.87-.21,38.82,5.84,55.6h0ZM43.02,92.17c-2.33-8.11-1.4-16.7-2.69-24.96-1.6-12.12-8.09-21.05-17.63-28.34-1.28-1-2.89-2.17-4.24-3.06l-1.74-1.18c2.41,1.42,4.79,2.9,7.03,4.59,9.53,7.01,15.82,15.98,17.31,27.89,1.19,8.33.08,16.83,1.96,25.06h0ZM22.84,121.17c-11.85.19-18.02,6.63-22.06,17.2-.05-2.61-.03-5.32.61-7.87.89-3.94,3.18-7.57,6.39-10.03,1.59-1.23,3.34-2.23,5.18-3-1.77.92-3.46,1.98-4.95,3.27-3.01,2.55-5.09,6.07-5.92,9.92-.42,1.91-.58,3.88-.55,5.84l-.73-.14c3.98-9.91,11.04-15.79,22.04-15.2h0ZM38.3,128.04c-3.83,5.63-12.79,3.27-18.49,2.75-3.19-.34-6.49-.66-9.64.05-3.17.67-5.73,2.84-7,5.81,0,0-.58-.46-.58-.46,12.27-9.64,23,8.62,38.79-2.59,1.58-1.11,3.05-2.38,4.44-3.72-1.33,1.41-2.75,2.74-4.31,3.9-13.55,10.07-23.15-1.58-33.44.53-1.84.41-3.54,1.31-5.01,2.48l-1.24.98.65-1.43c1.38-3.18,4.12-5.5,7.54-6.18,3.27-.71,6.61-.35,9.87.08,5.71.6,14.4,3.18,18.43-2.2h0ZM45.35,128.57c-10.98.84-23.41-3.05-26.42-14.84-1.77-11.15,5.73-17.93,15.98-20.11,3.08-.63,6.26-.89,9.38-.48-3.13-.22-6.27.12-9.29.87-9.88,2.4-16.94,8.89-15.33,19.53,2.9,11.51,14.99,15.3,25.68,15.04h0ZM37.82,7.99c2.68,38.18,8.63,76.21,8.56,114.55.04,6.17-.02,12.98-.2,19.15-.15,6.38-.49,12.76-.82,19.13.17-5.75.42-13.5.44-19.14.33-20.7-.45-41.51-2.11-62.14-1.83-23.4-4.89-48.12-5.87-71.56h0ZM16.72,34.63c9.82,2.25,20.58,7.54,24.54,17.39-1.23-2.28-2.78-4.35-4.58-6.16-5.48-5.48-12.73-8.67-19.96-11.23h0ZM49.58,87.45c-.87-25.13-3.71-50.33-10.39-74.62,0,0-1.37-4.85-1.37-4.85.53,1.59,1.07,3.19,1.57,4.79,7.47,24.11,10.34,49.49,10.2,74.67h0ZM57.78,85.07c-1-24.23-3.76-46.41-15.08-68.26-1.32-2.57-3.43-6.34-4.88-8.83,1.57,2.4,3.79,6.09,5.22,8.65,11.84,21.58,14.76,44.17,14.75,68.44h0ZM65.66,80.27c-11.76-7.62,4.21-31.36-21.47-64.59-2-2.66-4.15-5.2-6.37-7.69,2.35,2.37,4.56,4.87,6.67,7.45,26.58,32.91,9.81,56.79,21.17,64.83h0ZM65.66,59.55c-.95-10.32-1.48-20.68-2.9-30.95-1.06-7.3-2.51-14.74-6.19-21.22-1.45-2.52-3.31-4.78-5.53-6.68,2.08,1.56,3.89,3.49,5.34,5.65,8.62,12.56,8.58,37.89,9.28,53.19h0ZM54.87,30.86c-.96-10.09-1.37-20.28-3.83-30.15,1.86,4.75,2.67,9.85,3.24,14.9.52,5.06.74,10.16.6,15.25h0ZM51.23,24.64c-.16-7.97.91-16-.19-23.93,1.04,3.36,1.25,6.94,1.24,10.45-.03,4.51-.45,9.01-1.05,13.48h0ZM65.66,23.58c-2.32-8.98-6.59-17.92-14.19-23.58,8.19,4.63,13.02,14.49,14.19,23.58h0ZM45.81,160.83c3.9-5.49,4.92-13.6,5.1-20.2.12-2.18-.12-4.55.59-6.71.56-1.63,1.96-1.99,3.51-2.02,3.56-.18,7.1-.12,10.65-.03l-5.31.29c-2.18.15-4.41.16-6.56.51-1.31.25-1.74,1.44-1.89,2.71-.23,1.7-.15,3.54-.21,5.26-.01,1.25-.13,2.76-.22,4.01-.56,5.42-2.01,11.98-5.65,16.18h0ZM49.07,159.42c1.34.51,2.79.77,4.2,1.02,2.1.36,4.3.62,6.43.78,5.7.46,11.56.26,17.23-.46,1.04-.15,2.17-.33,3.21-.48,1.02-.2,2.18-.42,3.2-.6-1.34.39-2.82.84-4.2,1.12-6.73,1.51-13.75,1.79-20.59.96-1.77-.24-3.62-.55-5.36-.97-1.4-.36-2.83-.73-4.12-1.39h0ZM55.06,132.56c1.63.46,2.63,2.13,2.98,3.7.18.89.19,1.82.06,2.71-.27,1.24-.26,1.28-.38,0-.27-2.34-.78-4.8-2.66-6.4h0ZM58.18,139.75c-1.09-3.09-1.11-8.26,3.43-7.83,3.9.41,4.35,5.31,3.73,8.38-.06-2.72-.38-7.26-3.81-7.61-3.88-.48-3.7,4.41-3.35,7.06h0ZM52.16,140.83c2.15-.34,4.41-.44,6.59-.49,2.2-.02,4.4.01,6.6.28-2.19.34-4.38.45-6.59.49-2.18.01-4.43,0-6.6-.28h0ZM59.5,141.45c.2,3.81.69,7.81,3.14,10.87.78,1,1.73,1.88,2.77,2.68-5.26-2.26-6.92-8.29-5.91-13.55h0ZM50.81,151.14c2.2-.34,4.36-.01,6.54.24-1.82.81-4.71.46-6.54-.24h0ZM51,145.59c.05,1.92.22,4.9,2.52,5.36,0,0-.1,0-.1,0,.38-.03.69-.28.92-.66.68-1.25.71-2.84.72-4.25,0,0,.27.28.27.28-1.21-.16-3.1-.5-4.34-.72h0ZM51,145.59c1.52.01,3.11.03,4.64.13.15,1.68.19,3.44-.65,4.97-.31.54-.92.99-1.57,1-.65-.12-1.27-.47-1.68-.98-1.13-1.45-1.09-3.42-.74-5.12h0ZM57.81,151.31c-2.8.41-2.89-3.03-2.55-4.98,0,0,.03-.17.03-.17l.11-.04c.51-.2,1.06-.16,1.54.04-.46.05-.94.15-1.3.41l.13-.21c.07.88.07,1.77.2,2.64.08.56.21,1.2.57,1.6.3.39.84.47,1.27.71h0ZM46.73,103.63c.77-2.64,2.63-5.44,5.57-5.82,3.85-.41,6.78,2.32,7.72,5.92.11.3.16.76.23,1.07.08.31.12.76.14,1.08.17,1.41.05,2.9-.1,4.31-.43,3.73-2.16,8.82-6.67,8.77-2.21-.06-4.25-1.18-5.68-2.8-.43-.53-.92-1.21-.76-1.93-.13,1.26,1.56,2.51,2.52,3.1,1.75,1.03,3.96,1.57,5.84.66,2.5-1.28,3.37-4.27,3.83-6.87.23-1.35.33-2.78.32-4.14.02-.3-.05-.73-.07-1.03-.03-.3-.06-.73-.13-1.02-.55-3.71-3.18-6.87-7.15-6.62-2.8.26-4.68,2.87-5.63,5.32h0ZM44.61,98.93c-3.7.01-7.56.56-10.82,2.41-3.19,1.75-5.59,5.14-5.27,8.86.58,6.83,7.72,10.5,13.81,11.52.9.16,1.89.29,2.8.38-6.48-.06-14.09-2.51-16.73-8.99-1.97-4.9.56-10,5.1-12.3,3.4-1.79,7.34-2.17,11.11-1.88h0ZM45.81,91.74c2.57-4.41,7.79-6.34,12.23-3.34,5.57,3.96,6.86,12.32,6.79,18.7-.67-6.63-2.33-16.75-9.5-19.21-3.71-1.13-7.32.88-9.52,3.85h0ZM60.59,110.82c.53-1.3,1.59-2.36,2.87-2.94.43-.19.9-.32,1.37-.32-.37.3-.72.57-1.06.84-1.03.79-2.05,1.73-3.18,2.42h0ZM54.3,124.6c-.03-2.45,1.47-8.14,4.51-8.25,1.73.15,2.31,2.13,2.58,3.54-.56-1.06-1.23-2.81-2.58-2.86-2.34.35-3.87,5.53-4.5,7.57h0ZM56.04,123.54c0-1.52.22-3.51,1.4-4.62.54-.49,1.37-.37,1.85.13.56.55.87,1.2,1.09,1.88-.49-.51-.95-1.06-1.47-1.4-.26-.17-.52-.25-.7-.19-.19.05-.39.24-.56.49-.35.5-.6,1.14-.85,1.77-.25.64-.48,1.29-.77,1.95h0ZM55.96,86.77c2.28-2.68,6.18-3.84,9.57-2.97-1.7.18-3.35.39-4.97.89-1.62.49-3.11,1.24-4.6,2.08h0ZM58.93,88.51c-.28-2.6,1.59-5.17,4.03-2.84,1.5,1.63,2.03,3.8,2.18,5.92-.37-.99-.72-1.96-1.14-2.88-1.57-3.54-3.99-4.89-5.06-.2h0ZM65.42,84.7c-.65.55-1.06,1.08-1.63,1.68-.54-.95.65-2.25,1.63-1.68h0ZM45.12,118.92c-2.6.22-5.29.04-7.74-.94-2.48-.95-4.86-3.13-4.92-5.97,0-1.39.58-2.77,1.54-3.77,2.83-2.95,7.31-3.34,11.12-2.98-.34.01-1.14.05-1.46.06-.31.03-1.12.1-1.45.13-2.76.37-5.77,1.15-7.67,3.29-.82.89-1.31,2.06-1.31,3.27.06,2.56,2.17,4.43,4.38,5.43,2.32,1.06,4.96,1.4,7.5,1.5h0ZM45.12,128.04c-.87.18-1.53-.77-1.8-1.48-.4-.95-.49-1.97-.52-2.97,0-1.38.19-2.77.61-4.09.13,1.37.1,2.71.16,4.07.1,1.22.08,4.13,1.55,4.46h0ZM43.02,119.51c-.07,2.49-1.11,9.41-4.77,8.44-3.31-1.17.3-7.24,1.61-8.99-.7,1.51-1.37,3.03-1.84,4.59-.22.78-.42,1.58-.38,2.33.02.37.09.73.28.96.39.49,1.22.57,1.76.24,1.92-1.27,2.77-5.36,3.35-7.57h0ZM41.88,104.67c-.06-1.96-.13-3.91-.28-5.86-.04-.98-.28-1.92-.81-2.75-.49-.74-1.17-1.67-2.12-1.73-.45.07-.84.41-1.14.73-1.74,2.15.8,7.21,1.2,9.81,0,0-.35.07-.35.07-.23-1.06-.48-2.12-.75-3.17-.45-1.96-2.31-5.74-4.22-6.5-1.01-.36-1.69.65-1.96,1.5-.41,1.43.22,2.88.94,4.13,1.02,1.76,2.41,3.21,3.65,4.83l-.48.34c-1.59-2.33-3.8-4.2-6.05-5.89-1.02-.85-5.37-1.6-4.88.69.1.48.39.92.76,1.3.76.78,1.77,1.32,2.75,1.81,2.05,1.01,4.23,1.72,6.27,2.8l-.35.62c-2.99-1.68-8.01-3.74-11.45-3.15-1.97.4-1.39,2.37-.03,3.21.47.22,1.04.36,1.6.48,2.86.56,5.79.72,8.7.87l-.03.76c-1.64-.08-3.29-.13-4.94-.15-1.55-.02-3.47-.03-4.85.13-1.12.3-2.76.94-2.45,2.32.18.68.76,1.43,1.47,1.67,1.9.35,3.87.19,5.81.16,1.43-.05,2.87-.13,4.3-.24v.69c-.88-.02-1.78-.04-2.68-.01-2.04.08-6,.25-7.34,1.85-.27.95-.31,2.31.97,2.66,1.11.34,2.38.14,3.52-.08,1.19-.24,2.37-.6,3.53-1.01,1.16-.41,2.31-.86,3.42-1.37l.18.5c-2.62.66-6.03,2.35-7.46,4.72-.74,1.33.82,1.56,1.82,1.49,3.2-.3,6.1-2.62,8.38-4.75,0,0,.22.21.22.21-1.12,1.18-2.23,2.38-3.22,3.67-.31.43-.66.85-.74,1.38-.3,1.65.65,3.58,2.53,2.45.47-.26.88-.62,1.27-.99.3-.42.67-.92.96-1.39.6-.96,1.11-1.98,1.57-3.02.22-.46.46-1.12.75-1.53-.26.42-.53,1.07-.72,1.54-.65,1.58-1.45,3.11-2.46,4.48-1.18,1.25-3.22,2.34-3.99.07-.17-.54-.21-1.11-.12-1.66.08-.57.45-1.03.76-1.48.98-1.32,2.08-2.54,3.19-3.74l.22.21c-1.35,1.35-2.84,2.56-4.49,3.53-.83.48-1.7.9-2.64,1.16-1.11.33-3.93.68-3.91-1.1.2-1.44,1.68-2.55,2.76-3.37,1.57-1.11,3.34-1.95,5.21-2.42l.18.5c-2.28,1.03-4.61,1.93-7.06,2.47-2.81.65-6.28.47-5.22-3.4.86-1.49,3.63-1.9,5.2-2.11,1.82-.21,3.65-.22,5.47-.18v.69c-3.24.2-6.5.49-9.76.19-1.24-.09-2.25-1.13-2.56-2.31-.46-1.82,1.53-2.86,2.97-3.2.87-.13,1.71-.14,2.56-.16,2.49-.04,4.97.03,7.45.14l-.03.76c-2.95-.13-5.92-.3-8.83-.88-.88-.2-1.95-.42-2.57-1.18-1.35-1.48-1.18-3.51.99-3.98,3.63-.66,8.83,1.48,11.98,3.26,0,0-.35.62-.35.62-.98-.53-2.03-.96-3.08-1.41-2.24-1.02-6.37-2.35-7.02-4.98-.53-2.47,2.64-2.57,4.26-2.1.58.16,1.15.35,1.68.75l1.35,1.06c1.81,1.43,3.47,3.09,4.78,5l-.48.34c-1.85-2.55-5.5-5.99-4.58-9.45.34-1.11,1.31-2.27,2.58-1.8.58.21,1.02.6,1.41,1,.77.83,1.35,1.78,1.86,2.75,1.08,1.93,1.44,4.15,1.9,6.29l-.35.07c-.37-1.9-1.04-3.75-1.45-5.68-.2-.96-.35-1.96-.18-2.96.14-.88.71-1.69,1.53-2.05,1.41-.63,2.96,1.96,3.25,3.09.15.48.16.98.19,1.46.11,1.96.14,3.91.17,5.87h0ZM44.78,93.84c-2.42-.49-2.64,2.84-2.79,4.51-.15,2.12-.04,4.25-.11,6.39-.28-1.05-.47-2.11-.58-3.19-.19-2.16-.26-4.47.68-6.48.47-1.05,1.69-1.92,2.8-1.23h0ZM48.23,99.7c-1.84-1.91-2.84-4.94-2.1-7.54.13.67.21,1.31.36,1.94.39,1.84,1.11,3.81,1.74,5.59h0ZM47.64,90.26c.71.16,1.15.87,1.5,1.46.96,1.86,1.28,3.99,1.12,6.06-.43-1.12-.8-2.74-1.12-3.91-.18-.64-.34-1.28-.56-1.9-.23-.61-.42-1.27-.94-1.71h0ZM52.4,97.32c.06-1.61,1.28-8.26-.55-8.76-1.01-.02-1.79.9-2.52,1.52.6-1.01,1.71-2.56,3.08-1.99,2.25,1.41.84,7.19-.01,9.23h0ZM54.95,97.17c.56-1.3,3.69-6.67,2-7.52-.83-.23-1.84.28-2.65.6.88-.79,2.63-1.94,3.6-.63,1.14,2.17-1.44,6.02-2.95,7.55h0ZM56.85,98.53c1.14-1.22,2.42-2.35,3.38-3.68.4-.58.88-1.38.2-1.91-.63-.45-1.4-.58-2.14-.78,1.15-.16,3.07-.08,3.19,1.45-.03,2.02-2.98,4.12-4.63,4.92h0ZM58.99,100.94c.52-.41,1.04-.77,1.53-1.16.64-.54,1.46-1.06,1.64-1.85.04-.8-1.03-1.29-1.66-1.75.72.07,1.55.29,2.09.91,1.33,1.93-2.09,3.62-3.6,3.85h0ZM60.15,103.84c.93-.5,2.89-1.05,3.13-2.11.04-.77-.59-1.37-1.05-2.03.55.23,1.06.56,1.45,1.09,1.37,2.13-1.9,3.29-3.54,3.05h0ZM60.51,107.1c.52-.22,1.02-.39,1.51-.58.66-.28,1.39-.51,1.78-1.07.32-.64-.22-1.27-.57-1.91.26.12.49.28.71.47.87.74.85,1.87-.13,2.51-1.01.63-2.16.76-3.3.59h0ZM131.86,48.99c-1.03,13.48-.23,26.97-.79,40.47-.58,11.43-2.41,26.07-15.73,28.97-1.65.39-3.34.58-5.03.63,1.68-.13,3.35-.39,4.98-.83,12.99-3.32,14.4-17.5,15.01-28.81.6-13.47-.06-27.02,1.57-40.44h0ZM130.71,48.81c-14.2,13.77,9.83,54.37-10.75,67.15-2.93,1.77-6.29,2.66-9.66,3.1,3.31-.6,6.63-1.57,9.46-3.42,19.68-12.68-4.12-53.04,10.95-66.83h0ZM113.08,110.34c2.94-.63,4.99-2.56,5.98-5.36.99-2.64,1.19-5.5,1.27-8.3.05-2.82-.05-5.66-.18-8.49-.49-13.36-2.23-31.01,10.56-39.37-12.19,8.86-10.17,26.03-9.83,39.34.09,2.84.18,5.69.04,8.54-.15,2.85-.42,5.75-1.51,8.42-1.16,2.85-3.25,4.73-6.33,5.22h0ZM108.32,64.13c1.76-4.41,4.91-8.31,9.01-10.75,4.08-2.46,8.72-3.77,13.38-4.56-2.82.87-5.6,1.75-8.31,2.87-6.49,2.71-10.6,6.3-14.08,12.45h0ZM106.73,97.65c11.2-15.77-6.12-30.56,2.33-52.1,1.47-3.87,3.6-7.46,6.07-10.77-1.5,2.3-2.91,4.66-4.05,7.15-11.35,23.53,8.31,39.57-4.36,55.72h0ZM130.71,48.81c-5.84-.79-11.82-.07-17.37,1.85-1.85.65-3.65,1.44-5.38,2.39,6.1-4.65,15.38-6.39,22.75-4.24h0ZM102.9,95.4c6.05-16.78-6.56-40.74,5.84-55.6,1.8-2.07,4-3.75,6.4-5.02-1.16.71-2.26,1.5-3.29,2.37-16.33,14.09-1.46,40.68-8.95,58.25h0ZM88.84,92.31c1.88-8.24.77-16.74,1.96-25.06,1.48-11.91,7.78-20.88,17.31-27.89,2.24-1.68,4.62-3.17,7.03-4.59l-1.74,1.18c-1.67,1.1-3.51,2.45-5.06,3.71-9.13,7.14-15.28,16.04-16.81,27.69-1.29,8.26-.36,16.85-2.69,24.96h0ZM109.02,121.31c11.01-.6,18.06,5.29,22.04,15.2,0,0-.73.14-.73.14.03-1.96-.13-3.93-.55-5.84-.83-3.85-2.91-7.37-5.92-9.92-1.49-1.3-3.19-2.36-4.95-3.27,1.84.77,3.59,1.77,5.18,3,3.2,2.46,5.5,6.09,6.39,10.03.64,2.55.67,5.26.61,7.87-4.04-10.58-10.21-17.01-22.06-17.2h0ZM93.56,128.19c4.01,5.38,12.72,2.81,18.43,2.2,3.26-.42,6.6-.79,9.87-.08,3.42.69,6.15,3,7.54,6.18,0,0,.65,1.43.65,1.43l-1.24-.98c-1.47-1.17-3.17-2.06-5.01-2.48-10.29-2.11-19.89,9.53-33.44-.53-1.56-1.16-2.98-2.49-4.31-3.9,1.39,1.34,2.85,2.62,4.44,3.72,15.8,11.22,26.51-7.05,38.79,2.59,0,0-.58.46-.58.46-1.27-2.97-3.82-5.14-7-5.81-3.15-.71-6.45-.4-9.64-.05-5.71.52-14.67,2.87-18.49-2.75h0ZM86.5,128.72c10.69.26,22.78-3.53,25.68-15.04,1.62-10.63-5.45-17.13-15.33-19.53-3.02-.75-6.17-1.09-9.29-.87,3.12-.41,6.31-.15,9.38.48,10.24,2.17,17.75,8.98,15.98,20.11-3.01,11.8-15.44,15.69-26.42,14.84h0ZM94.04,8.13c-.97,23.42-4.04,48.16-5.87,71.56-1.66,20.63-2.44,41.44-2.11,62.14.02,5.64.28,13.45.44,19.14-.33-6.37-.68-12.75-.82-19.13-.18-6.18-.25-12.98-.2-19.15-.06-38.35,5.88-76.37,8.56-114.55h0ZM115.14,34.77c-7.22,2.55-14.47,5.74-19.96,11.23-1.8,1.82-3.35,3.88-4.58,6.16,3.96-9.85,14.71-15.14,24.54-17.39h0ZM82.27,87.6c-.15-25.18,2.72-50.57,10.2-74.67.5-1.6,1.04-3.2,1.57-4.79l-1.37,4.85c-6.69,24.29-9.52,49.49-10.39,74.62h0ZM74.08,85.22c0-24.28,2.91-46.85,14.75-68.44,1.42-2.53,3.64-6.24,5.22-8.65-1.45,2.48-3.54,6.22-4.88,8.83-11.32,21.85-14.08,44.04-15.08,68.26h0ZM66.2,80.41c11.35-8-5.4-31.94,21.17-64.83,2.11-2.59,4.32-5.09,6.67-7.45-2.22,2.49-4.37,5.03-6.37,7.69-25.69,33.26-9.7,56.95-21.47,64.59h0ZM66.2,59.7c.7-15.28.65-40.63,9.28-53.19,1.46-2.16,3.27-4.08,5.34-5.65-2.22,1.9-4.08,4.16-5.53,6.68-3.69,6.47-5.14,13.92-6.19,21.22-1.42,10.27-1.94,20.63-2.9,30.95h0ZM76.98,31.01c-.14-5.09.08-10.18.6-15.25.57-5.05,1.38-10.15,3.24-14.9-2.46,9.87-2.87,20.06-3.83,30.15h0ZM80.63,24.79c-.59-4.47-1.01-8.97-1.05-13.48-.01-3.5.2-7.08,1.24-10.45-1.11,7.93-.03,15.96-.19,23.93h0ZM66.2,23.73c1.16-9.09,6-18.95,14.19-23.58-7.6,5.66-11.86,14.6-14.19,23.58h0ZM86.04,160.97c-3.64-4.2-5.09-10.77-5.65-16.18-.1-1.24-.21-2.76-.22-4.01-.06-1.72.02-3.56-.21-5.26-.15-1.27-.58-2.46-1.89-2.71-2.15-.35-4.38-.36-6.56-.51l-5.31-.29c3.55-.09,7.09-.15,10.65.03,1.56.04,2.95.38,3.51,2.02.71,2.16.46,4.53.59,6.71.18,6.6,1.2,14.72,5.1,20.2h0ZM76.8,132.7c-1.88,1.6-2.39,4.06-2.66,6.4-.12,1.27-.11,1.28-.38,0-.13-.89-.12-1.82.06-2.71.35-1.57,1.35-3.25,2.98-3.7h0ZM73.67,139.9c.35-2.65.53-7.55-3.35-7.06-3.43.35-3.75,4.88-3.81,7.61-.62-3.06-.17-7.96,3.73-8.38,4.54-.43,4.52,4.74,3.43,7.83h0ZM84.63,141.25c-.02-1.62.03-7.8-1.7-8.31h-.05s-.06-.05-.06-.05c-1.2-.68-2.69-.8-4.04-1.04-1.42-.2-2.85-.35-4.28-.47-7.15-.51-14.4-.8-21.52.1-1.34.25-2.93.41-3.99,1.31-.31.02-.56.27-.75.6-.52.97-.67,2.11-.81,3.2-.17,1.5-.21,3.01-.21,4.52-.13-2.11-.43-6.85,1-8.45.15-.16.37-.29.61-.34l-.13.07c.57-.56,1.3-.8,2.03-1.03,2.11-.61,4.3-.82,6.47-1,5.78-.39,11.59-.23,17.35.32,2.16.22,4.33.49,6.45,1.01.74.2,1.45.36,2.1.83l-.1-.05c2.18.53,1.73,6.97,1.61,8.78h0ZM79.7,140.98c-2.16.28-4.42.3-6.6.28-2.2-.04-4.4-.15-6.59-.49,2.2-.27,4.39-.31,6.6-.28,2.18.05,4.43.15,6.59.49h0ZM72.36,141.6c1,5.26-.66,11.29-5.91,13.55,1.04-.8,1.99-1.68,2.77-2.68,2.45-3.06,2.94-7.06,3.14-10.87h0ZM75.15,141.77c-.29,5.18-1.7,10.5-4.8,14.76-1.73,2.31-4.5,4.01-7.15,1.97-4.13-3.37-5.68-11.8-6.49-16.88,1.07,4.14,3.87,17.05,9.11,17.02,3.13-.2,5.34-4.39,6.54-6.95,1.4-3.14,2.34-6.5,2.79-9.92h0ZM81.04,151.28c-1.83.7-4.72,1.05-6.54.24,2.18-.26,4.35-.58,6.54-.24h0ZM80.86,145.73c.35,1.7.39,3.67-.74,5.12-.42.51-1.04.85-1.68.98-.65-.01-1.26-.46-1.57-1-.84-1.53-.8-3.29-.65-4.97,1.53-.1,3.12-.12,4.64-.13h0ZM80.86,145.73c-1.25.22-3.11.56-4.34.72l.27-.28c.02,1.41.04,3,.72,4.25.22.38.53.63.92.66h-.1c2.3-.44,2.47-3.44,2.52-5.35h0ZM74.05,151.46c.43-.24.97-.32,1.27-.71.35-.41.49-1.04.57-1.6.13-.87.13-1.76.2-2.64l.13.21c-.36-.26-.84-.36-1.3-.41.49-.21,1.03-.24,1.54-.04l.11.04.03.17c.34,1.95.26,5.4-2.55,4.98h0ZM85.13,103.78c-.95-2.45-2.82-5.07-5.63-5.32-3.97-.25-6.6,2.92-7.15,6.62-.07.29-.11.72-.13,1.02-.01.31-.08.73-.07,1.03-.01,1.36.08,2.8.32,4.14.47,2.59,1.34,5.59,3.83,6.87,1.88.91,4.09.37,5.84-.66.96-.59,2.65-1.85,2.52-3.1.16.72-.34,1.4-.76,1.93-1.43,1.62-3.46,2.75-5.68,2.8-4.51.05-6.24-5.04-6.67-8.77-.15-1.41-.27-2.9-.1-4.31.03-.32.06-.77.14-1.08.08-.31.12-.77.23-1.07.94-3.6,3.87-6.33,7.72-5.92,2.94.38,4.81,3.18,5.57,5.82h0ZM87.25,99.07c3.77-.3,7.71.09,11.11,1.88,4.55,2.29,7.07,7.4,5.1,12.3-2.64,6.48-10.24,8.93-16.73,8.99.9-.09,1.9-.23,2.8-.38,6.09-1.02,13.23-4.69,13.81-11.52.31-3.72-2.08-7.11-5.27-8.86-3.25-1.84-7.11-2.39-10.82-2.41h0ZM86.04,91.88c-2.2-2.97-5.81-4.98-9.52-3.85-7.17,2.46-8.82,12.57-9.5,19.21-.07-6.38,1.21-14.74,6.79-18.7,4.44-3,9.66-1.07,12.23,3.34h0ZM71.27,110.97c-1.12-.68-2.14-1.62-3.18-2.42-.34-.27-.69-.54-1.06-.84.48,0,.94.13,1.37.32,1.27.58,2.33,1.64,2.87,2.94h0ZM84.84,118.29c-.34,3.75-1.88,10.91-7.06,9.36-1.37-.43-2.43-1.37-3.57-2.16-.36-.27-.98-.6-1.37-.83l-.72-.34c-.39-.2-1.07-.43-1.48-.6-.26-.08-.9-.26-1.15-.34-.24-.05-.92-.19-1.17-.25-.27-.03-.93-.12-1.19-.15-.25-.02-.94-.04-1.2-.06-.26,0-.94.02-1.2.03-.26.02-.93.1-1.19.12-.25.05-.93.17-1.18.22-.26.07-.9.25-1.16.32-.42.16-1.09.37-1.49.58-.59.25-1.22.61-1.77.93-.26.16-.73.51-.98.68-2.35,1.95-5.37,3.03-7.53.15-1.62-2.26-2.17-5.1-2.44-7.81.35,2.14.9,4.29,1.91,6.2,1.99,3.72,4.69,3.44,7.64.93.26-.19.78-.57,1.03-.74.36-.21.73-.44,1.08-.64.45-.21,1.07-.54,1.53-.69l.79-.29c.28-.08.95-.27,1.21-.34.26-.05.97-.19,1.24-.24.28-.03.98-.11,1.25-.14.26,0,.99-.03,1.26-.04.28.01.99.05,1.26.07.27.03.97.13,1.25.17.26.06.98.21,1.23.27.27.08.93.28,1.21.36l.78.31c.45.16,1.09.5,1.52.71.21.13.87.52,1.08.65,1.2.82,2.34,1.92,3.7,2.4,4.64,1.56,6.3-5.47,6.87-8.79h0ZM77.55,124.75c-.64-2.03-2.16-7.21-4.5-7.57-1.35.06-2.01,1.8-2.58,2.86.24-1.71,1.43-4.38,3.59-3.3,2.42,1.43,3.42,5.38,3.5,8.01h0ZM75.82,123.69c-.29-.65-.52-1.31-.77-1.95-.25-.63-.5-1.27-.85-1.77-.17-.25-.38-.44-.56-.49-.18-.06-.44.02-.7.19-.52.34-.97.89-1.47,1.4.22-.68.52-1.33,1.09-1.88.48-.5,1.31-.62,1.85-.13,1.18,1.12,1.41,3.1,1.4,4.62h0ZM84.39,123.45c-.33,4.12-2.57,8.33-7.3,6.25-1.15-.49-2.39-1.35-3.22-2.04-2.23-1.43-4.71-2.62-7.37-2.87-3.48-.37-6.47,1.04-9.11,3.2-5.47,4.18-9.27,1.83-9.91-4.69.74,4.39,3.12,8.14,7.87,5.29,1.18-.69,2.15-1.58,3.27-2.39,1.14-.8,2.41-1.43,3.77-1.82,4.12-1.23,8.46.37,11.86,2.71,5.27,4.52,8.9,3.14,10.15-3.65h0ZM75.9,86.92c-1.49-.84-2.97-1.59-4.6-2.08-1.62-.51-3.27-.72-4.97-.89,3.39-.87,7.29.29,9.57,2.97h0ZM72.92,88.65c-1.07-4.71-3.5-3.34-5.06.2-.42.93-.78,1.9-1.14,2.88.15-2.12.68-4.3,2.18-5.92,2.44-2.33,4.3.25,4.03,2.84h0ZM66.43,84.85c.98-.56,2.17.73,1.63,1.68-.57-.6-.98-1.13-1.63-1.68h0ZM86.73,119.07c2.54-.1,5.18-.44,7.5-1.5,2.21-1,4.32-2.87,4.38-5.43,0-1.21-.49-2.38-1.31-3.27-1.9-2.14-4.91-2.91-7.67-3.29-.32-.02-1.13-.11-1.45-.13-.33-.01-1.13-.04-1.46-.06,3.81-.36,8.29.03,11.12,2.98.96,1,1.53,2.38,1.54,3.77-.06,2.84-2.43,5.02-4.92,5.97-2.45.98-5.14,1.16-7.74.94h0ZM86.73,128.19c1.46-.33,1.45-3.24,1.55-4.46.06-1.36.03-2.7.16-4.07.42,1.32.6,2.71.61,4.09-.03,1-.12,2.01-.52,2.97-.27.71-.93,1.65-1.8,1.48h0ZM88.84,119.65c.57,2.2,1.43,6.31,3.35,7.57.54.33,1.38.25,1.76-.24.19-.23.26-.59.28-.96.04-.75-.17-1.55-.38-2.33-.48-1.56-1.14-3.08-1.84-4.59,1.3,1.74,4.92,7.82,1.61,8.99-3.66.96-4.7-5.94-4.77-8.44h0ZM89.98,104.81c.03-1.96.06-3.91.17-5.87.03-.49.05-.99.19-1.46.29-1.14,1.84-3.71,3.25-3.09.83.36,1.39,1.17,1.53,2.05.17,1,.01,2-.18,2.96-.41,1.93-1.08,3.78-1.45,5.68l-.35-.07c.46-2.14.82-4.35,1.9-6.29.52-.97,1.1-1.92,1.86-2.75.39-.4.83-.79,1.41-1,1.27-.47,2.24.69,2.58,1.8.92,3.46-2.73,6.9-4.58,9.45,0,0-.48-.34-.48-.34,1.31-1.91,2.96-3.58,4.78-5l1.35-1.06c.53-.4,1.1-.59,1.68-.75,1.62-.47,4.8-.37,4.26,2.1-.65,2.63-4.78,3.96-7.02,4.98-1.05.44-2.1.88-3.08,1.41l-.35-.62c3.15-1.78,8.36-3.92,11.98-3.26,2.16.46,2.35,2.49.99,3.98-.62.76-1.69.98-2.57,1.18-2.91.58-5.88.75-8.83.88l-.03-.76c2.48-.1,4.96-.17,7.45-.14.84.02,1.69.04,2.56.16,1.44.34,3.43,1.38,2.97,3.2-.32,1.17-1.32,2.22-2.56,2.31-3.26.29-6.52,0-9.77-.19v-.69c1.84-.04,3.67-.03,5.49.18,1.57.22,4.34.62,5.2,2.11,1.06,3.86-2.4,4.05-5.22,3.4-2.45-.54-4.78-1.44-7.06-2.47,0,0,.18-.5.18-.5,1.88.48,3.64,1.31,5.21,2.42.78.56,1.53,1.19,2.13,1.97.3.42.59.86.63,1.4.07.6-.45,1.09-.99,1.22-1.97.48-3.9-.35-5.57-1.29-1.65-.98-3.14-2.18-4.5-3.53l.22-.21c1.11,1.21,2.21,2.43,3.19,3.74.32.45.68.92.76,1.48.09.56.05,1.13-.12,1.66-.77,2.26-2.79,1.19-3.99-.07-1.02-1.38-1.81-2.91-2.46-4.48-.21-.46-.44-1.12-.72-1.54.27.42.55,1.06.75,1.53.46,1.04.96,2.06,1.57,3.02.29.47.65.97.96,1.39.39.37.8.73,1.27.99,1.87,1.12,2.83-.79,2.53-2.45-.09-.53-.44-.95-.74-1.38-.99-1.29-2.1-2.49-3.22-3.67l.22-.21c2.28,2.13,5.18,4.45,8.38,4.75,1.63.08,2.71-.45,1.46-2.06-1.79-2.12-4.45-3.47-7.1-4.15,0,0,.18-.5.18-.5,2.35,1.02,9.02,3.82,11.15,2.07.62-.56.45-1.64.29-2.28-1.72-2-7.47-1.88-10.04-1.84v-.69c1.44.1,2.88.18,4.31.24,1.43.05,2.87.09,4.28.02.64-.07,1.35,0,1.91-.36.52-.36.96-.92,1.09-1.49.31-1.38-1.33-2.02-2.45-2.32-3.03-.28-6.59-.09-9.79.03,0,0-.03-.76-.03-.76,2.33-.1,4.68-.26,6.99-.57,1.1-.17,2.31-.33,3.31-.77.8-.44,1.54-1.67,1.14-2.45-.3-.64-1.27-.83-1.97-.87-1.43-.05-2.84.22-4.23.6-2.23.62-4.41,1.51-6.41,2.66l-.35-.62c2.46-1.46,9.11-3.1,9.78-5.91.4-1.85-2.31-1.6-3.44-1.31-.52.14-1.05.33-1.44.63l-1.35,1.05c-1.79,1.39-3.4,2.98-4.69,4.83l-.48-.34c1.76-2.4,5.39-5.75,4.59-8.97-1.34-3.72-4.02.09-5,2.01-1.08,1.9-1.44,4.06-1.93,6.16l-.35-.07c.4-1.94,1.1-3.77,1.53-5.67.21-.94.37-1.92.22-2.86-.12-.82-.63-1.56-1.39-1.91-1.24-.57-2.78,1.94-3.03,2.94-.15.46-.17.95-.21,1.44-.15,1.95-.22,3.91-.28,5.86h0ZM87.08,93.99c1.11-.69,2.32.17,2.8,1.23.94,2.01.87,4.33.68,6.48-.11,1.08-.3,2.14-.58,3.19-.07-2.4.06-4.79-.17-7.17-.18-1.54-.6-4.19-2.72-3.73h0ZM83.63,99.85c.89-2.44,1.74-4.96,2.1-7.54.74,2.6-.26,5.62-2.1,7.54h0ZM84.22,90.4c-.52.43-.71,1.1-.94,1.71-.38,1.08-.77,2.72-1.07,3.85-.18.65-.35,1.31-.61,1.96-.16-2.07.16-4.2,1.12-6.06.35-.58.79-1.3,1.5-1.46h0ZM79.46,97.47c-.85-2.04-2.26-7.81-.01-9.23,1.37-.57,2.48.98,3.08,1.99-.73-.62-1.51-1.54-2.52-1.52-1.83.5-.61,7.13-.55,8.76h0ZM76.91,97.32c-1.5-1.54-4.09-5.37-2.95-7.55.97-1.31,2.71-.16,3.6.63-.78-.29-2.47-1.17-3.01-.28-.64,1.8,1.59,5.45,2.37,7.2h0ZM75,98.68c-1.65-.79-4.61-2.89-4.63-4.92.05-1.26,1.55-1.55,2.54-1.51.22.01.43.03.65.06-.21.06-.42.11-.62.16-.39.11-.8.22-1.16.41-1.08.49-.71,1.33-.15,2.12.96,1.33,2.24,2.46,3.38,3.68h0ZM72.86,101.09c-1.51-.23-4.94-1.92-3.6-3.85.54-.62,1.37-.84,2.09-.91-.64.46-1.71.95-1.66,1.75.19.79,1,1.32,1.64,1.85.5.38,1.01.75,1.53,1.16h0ZM71.71,103.98c-1.64.24-4.91-.92-3.54-3.05.39-.53.9-.86,1.45-1.09-.45.66-1.09,1.26-1.05,2.03.24,1.05,2.2,1.6,3.13,2.11h0ZM71.35,107.24c-1.14.17-2.29.04-3.3-.59-.99-.64-1.01-1.77-.13-2.51.22-.19.45-.34.71-.47-.35.64-.89,1.27-.57,1.91.39.56,1.12.8,1.78,1.07.49.19.99.37,1.51.58h0Z"/>
    </g>
  </g>
</svg>