<?xml version="1.0" encoding="UTF-8"?>
<svg id="Layer_2" data-name="Layer 2" xmlns="http://www.w3.org/2000/svg" viewBox="0 0 535.35 89.7">
  <defs>
    <style>
      .cls-1 {
        fill: #fff;
      }
    </style>
  </defs>
  <g id="Layer_1-2" data-name="Layer 1">
    <g>
      <path class="cls-1" d="M6,71l3.2-15H0v-13h12l3-14H4v-13h13.8l3.2-15h16l-3.2,15h12l3.2-15h16l-3.2,15h9.2v13h-12l-3,14h11v13h-13.8l-3.2,15h-16l3.2-15h-12l-3.2,15H6ZM28,43h12l3-14h-12l-3,14Z"/>
      <path class="cls-1" d="M94.5,19c6.47-1.33,12.13-2,17-2h3.5c4.53,0,8.17,1.37,10.9,4.1,2.73,2.73,4.1,6.37,4.1,10.9v23c0,5-1.42,8.92-4.25,11.75s-6.75,4.25-11.75,4.25h-37V1h17.5v18ZM112.5,34c0-1-.33-1.83-1-2.5-.67-.67-1.5-1-2.5-1h-2.5c-2.8,0-5.22.13-7.25.4-2.03.27-3.62.47-4.75.6v26h14c2.67,0,4-1.33,4-4v-19.5Z"/>
      <path class="cls-1" d="M161,20v51h-17.5v-37.5h-7.5v-13.5h25ZM143.5,0h17.5v14h-17.5V0Z"/>
      <path class="cls-1" d="M208,71c-6.47.67-12.8,1-19,1-4.53,0-8.17-1.37-10.9-4.1-2.73-2.73-4.1-6.37-4.1-10.9v-25.5h-6v-13.5h6l2-12h15.5v12h12.5v13.5h-12.5v23c0,1,.33,1.83,1,2.5.67.67,1.5,1,2.5,1h13v13Z"/>
      <path class="cls-1" d="M261,70c-12.47,1.33-23.47,2-33,2-4.53,0-8.17-1.37-10.9-4.1-2.73-2.73-4.1-6.37-4.1-10.9v-23c0-5,1.42-8.92,4.25-11.75s6.75-4.25,11.75-4.25h32v13.5h-26.5c-2.67,0-4,1.33-4,4v19.5c0,1,.33,1.83,1,2.5.67.67,1.5,1,2.5,1,6,0,15-.5,27-1.5v13Z"/>
      <path class="cls-1" d="M323,56c0,5-1.42,8.92-4.25,11.75s-6.75,4.25-11.75,4.25h-23c-5,0-8.92-1.42-11.75-4.25-2.83-2.83-4.25-6.75-4.25-11.75v-23c0-5,1.42-8.92,4.25-11.75s6.75-4.25,11.75-4.25h23c5,0,8.92,1.42,11.75,4.25,2.83,2.83,4.25,6.75,4.25,11.75v23ZM305.5,34.5c0-2.67-1.33-4-4-4h-12c-2.67,0-4,1.33-4,4v20c0,2.67,1.33,4,4,4h12c2.67,0,4-1.33,4-4v-20Z"/>
      <path class="cls-1" d="M354,20v51h-17.5v-37.5h-7.5v-13.5h25ZM336.5,0h17.5v14h-17.5V0Z"/>
      <path class="cls-1" d="M393.49,31.5c-3.53,0-7.53.67-12,2v37.5h-17.5V18h15.5l1,5c3.13-2.07,6.35-3.58,9.65-4.55,3.3-.97,6.08-1.45,8.35-1.45h4.5c4.53,0,8.17,1.37,10.9,4.1,2.73,2.73,4.1,6.37,4.1,10.9v39h-17.5v-36c0-1-.33-1.83-1-2.5-.67-.67-1.5-1-2.5-1h-3.5Z"/>
      <path class="cls-1" d="M430.3,15.78V6.65c0-1.54.62-2.86,1.87-3.96,1.25-1.1,2.57-1.65,3.96-1.65h32.12c4.11,0,6.2,1.61,6.27,4.84l.11,5.28c.07,3.01-1.87,4.51-5.83,4.51h-16.17c-2.13,0-3.19-1.21-3.19-3.63v-1.98h-4.18c-1.32,0-1.98.59-1.98,1.76v3.96h-12.98ZM475.07,71v-11.77h-29.92c-1.25,0-1.87-.92-1.87-2.75v-10.89c0-1.61.92-2.42,2.75-2.42h28.6v-22.11c0-1.25-.5-2.35-1.49-3.3-.99-.95-2.22-1.43-3.68-1.43h-39.16v11.33h28.6c1.03,0,1.65.33,1.87.99.15.37.22,1.28.22,2.75h-25.85c-3.23,0-4.84,2.13-4.84,6.38v29.7c0,2.35,1.25,3.52,3.74,3.52h8.8c-1.98,1.03-2.97,2.42-2.97,4.18v10.12c0,1.25.62,2.29,1.87,3.14,1.25.84,2.53,1.27,3.85,1.27h32.01v-11.77h-21.23c-.95,0-1.58-.11-1.87-.33-.29-.22-.44-.81-.44-1.76,0-2.57.88-4.18,2.64-4.84h18.37ZM457.91,9.07v1.98c0,.44.37.66,1.1.66h5.83c.66,0,.99-.26.99-.77v-1.87c0-.51-.33-.77-.99-.77h-5.94c-.66,0-.99.26-.99.77Z"/>
      <path class="cls-1" d="M504.77,16.33c.59,0,1.94.92,4.07,2.75,1.03-1.83,2.38-2.75,4.07-2.75h22.44v11.33h-19.14c-1.03,0-1.67.27-1.92.82-.26.55-.39,1.52-.39,2.92h17.93c2.35,0,3.52,1.28,3.52,3.85v31.79c0,2.64-1.17,3.96-3.52,3.96h-47.3c-2.42,0-3.63-1.17-3.63-3.52v-32.23c0-1.1.42-2.02,1.27-2.75.84-.73,1.78-1.1,2.81-1.1h16.83c0-2.49-.73-3.74-2.2-3.74h-18.81v-11.33h23.98ZM493.66,56.48c0,1.83.66,2.75,1.98,2.75h24.64c1.47,0,2.2-.88,2.2-2.64v-11.55c0-1.25-.73-1.87-2.2-1.87h-24.09c-1.69,0-2.53.62-2.53,1.87v11.44Z"/>
    </g>
  </g>
</svg>